<svg width="64" height="64" viewBox="0 0 64 64" fill="none" xmlns="http://www.w3.org/2000/svg">
<g clip-path="url(#clip0_225_94)">
<circle cx="35.5555" cy="32.0003" r="21.3333" fill="white"/>
<path d="M32 0C40.4869 0 48.6263 3.37142 54.6274 9.37258C60.6286 15.3737 64 23.5131 64 32C64 40.4869 60.6286 48.6263 54.6274 54.6274C48.6263 60.6286 40.4869 64 32 64C23.5131 64 15.3737 60.6286 9.37258 54.6274C3.37142 48.6263 0 40.4869 0 32C0 23.5131 3.37142 15.3737 9.37258 9.37258C15.3737 3.37142 23.5131 0 32 0ZM36.248 17.248C36.248 16.1871 35.8266 15.1697 35.0764 14.4196C34.3263 13.6694 33.3089 13.248 32.248 13.248C31.1871 13.248 30.1697 13.6694 29.4196 14.4196C28.6694 15.1697 28.248 16.1871 28.248 17.248V28.248H17.248C16.1871 28.248 15.1697 28.6694 14.4196 29.4196C13.6694 30.1697 13.248 31.1871 13.248 32.248C13.248 33.3089 13.6694 34.3263 14.4196 35.0764C15.1697 35.8266 16.1871 36.248 17.248 36.248H28.248V47.248C28.248 48.3089 28.6694 49.3263 29.4196 50.0764C30.1697 50.8266 31.1871 51.248 32.248 51.248C33.3089 51.248 34.3263 50.8266 35.0764 50.0764C35.8266 49.3263 36.248 48.3089 36.248 47.248V36.248H47.248C48.3089 36.248 49.3263 35.8266 50.0764 35.0764C50.8266 34.3263 51.248 33.3089 51.248 32.248C51.248 31.1871 50.8266 30.1697 50.0764 29.4196C49.3263 28.6694 48.3089 28.248 47.248 28.248H36.248V17.248Z" fill="#73C03F"/>
</g>
<defs>
<clipPath id="clip0_225_94">
<rect width="64" height="64" fill="white"/>
</clipPath>
</defs>
</svg>
